<?xml version="1.0" encoding="UTF-8" standalone="no"?>
<!-- Created with Inkscape (http://www.inkscape.org/) -->

<svg
   xmlns:dc="http://purl.org/dc/elements/1.1/"
   xmlns:cc="http://creativecommons.org/ns#"
   xmlns:rdf="http://www.w3.org/1999/02/22-rdf-syntax-ns#"
   xmlns:svg="http://www.w3.org/2000/svg"
   xmlns="http://www.w3.org/2000/svg"
   version="1.1"
   width="500"
   height="491.91702"
   id="svg2">
  <defs
     id="defs4">
    <clipPath
       id="clipPath3018">
      <path
         d="m 0,0 494.619,0 0,486.623 L 0,486.623 0,0 z"
         id="path3020" />
    </clipPath>
  </defs>
  <metadata
     id="metadata7">
    <rdf:RDF>
      <cc:Work
         rdf:about="">
        <dc:format>image/svg+xml</dc:format>
        <dc:type
           rdf:resource="http://purl.org/dc/dcmitype/StillImage" />
        <dc:title></dc:title>
      </cc:Work>
    </rdf:RDF>
  </metadata>
  <g
     transform="translate(-65.863125,-344.58423)"
     id="layer1">
    <g
       transform="matrix(1.0108791,0,0,-1.0108791,65.863125,836.50125)"
       id="g3012">
      <g
         id="g3014">
        <g
           clip-path="url(#clipPath3018)"
           id="g3016">
          <g
             transform="translate(249.1699,45.3174)"
             id="g3022">
            <path
               d="m 0,0 c 111.72,0 202.286,90.566 202.286,202.286 0,111.72 -90.566,202.287 -202.286,202.287 -111.72,0 -202.286,-90.567 -202.286,-202.287 C -202.286,90.566 -111.72,0 0,0"
               id="path3024"
               style="fill:#f6921e;fill-opacity:1;fill-rule:nonzero;stroke:none" />
          </g>
          <g
             transform="translate(248.1338,402.1719)"
             id="g3026">
            <path
               d="m 0,0 c 5.729,0 10.373,4.644 10.373,10.373 0,5.73 -4.644,10.373 -10.373,10.373 -5.729,0 -10.374,-4.643 -10.374,-10.373 C -10.374,4.644 -5.729,0 0,0"
               id="path3028"
               style="fill:#58595b;fill-opacity:1;fill-rule:nonzero;stroke:none" />
          </g>
          <g
             transform="translate(248.1328,413.582)"
             id="g3030">
            <path
               d="M 0,0 0,68.466"
               id="path3032"
               style="fill:none;stroke:#58595b;stroke-width:9.14900017;stroke-linecap:round;stroke-linejoin:round;stroke-miterlimit:4;stroke-opacity:1;stroke-dasharray:none" />
          </g>
          <g
             transform="translate(108.1836,433.8711)"
             id="g3034">
            <path
               d="M 0,0 C 36.308,3.929 56.899,72.931 137.239,37.116 106.096,30.326 99.809,-42.762 0,0"
               id="path3036"
               style="fill:#58595b;fill-opacity:1;fill-rule:nonzero;stroke:none" />
          </g>
          <g
             transform="translate(387.2764,412.2588)"
             id="g3038">
            <path
               d="M 0,0 C -36.308,3.929 -56.899,72.931 -137.239,37.117 -106.096,30.326 -99.809,-42.761 0,0"
               id="path3040"
               style="fill:#58595b;fill-opacity:1;fill-rule:nonzero;stroke:none" />
          </g>
          <g
             transform="translate(24.6162,256.4082)"
             id="g3042">
            <path
               d="m 0,0 c 0.231,0.912 0.355,1.809 0.372,2.691 0.063,3.303 -1.075,6.066 -3.413,8.29 -2.339,2.225 -5.306,3.371 -8.903,3.439 -3.636,0.07 -6.641,-0.95 -9.015,-3.058 -2.374,-2.108 -3.592,-4.814 -3.655,-8.116 -0.024,-1.256 0.127,-2.456 0.453,-3.6 0.326,-1.142 0.846,-2.283 1.56,-3.42 0.519,-0.865 0.959,-1.459 1.321,-1.78 0.361,-0.321 0.743,-0.486 1.144,-0.493 0.401,-0.008 0.741,0.13 1.021,0.412 0.279,0.282 0.423,0.631 0.431,1.045 0.005,0.267 -0.211,0.719 -0.647,1.356 -0.436,0.637 -0.744,1.138 -0.924,1.502 -0.426,0.784 -0.742,1.579 -0.948,2.386 -0.205,0.806 -0.3,1.597 -0.286,2.372 0.046,2.38 0.947,4.279 2.707,5.696 1.758,1.418 4.095,2.099 7.01,2.044 2.914,-0.055 5.224,-0.815 6.928,-2.278 1.704,-1.464 2.534,-3.379 2.489,-5.745 -0.025,-1.297 -0.364,-2.42 -1.017,-3.371 -0.654,-0.951 -1.484,-1.543 -2.492,-1.778 -0.201,-0.05 -0.49,-0.118 -0.866,-0.205 -1.262,-0.243 -1.901,-0.806 -1.918,-1.688 -0.01,-0.548 0.093,-0.932 0.309,-1.15 0.217,-0.218 0.639,-0.333 1.268,-0.345 -0.148,0.003 0.344,0.007 1.474,0.012 1.13,0.006 2.351,-0.004 3.661,-0.029 0.749,-0.014 1.245,0.077 1.49,0.272 0.244,0.196 0.371,0.542 0.381,1.036 0.008,0.455 -0.059,0.804 -0.201,1.047 -0.143,0.244 -0.393,0.436 -0.752,0.576 C -0.571,-1.871 -0.231,-0.912 0,0 m -17.675,-51.704 -1.81,10.516 17.81,3.066 0.572,-3.321 c 0.172,-1.001 0.386,-1.633 0.641,-1.894 0.256,-0.262 0.653,-0.346 1.194,-0.253 0.474,0.082 0.808,0.268 1.003,0.559 0.194,0.292 0.25,0.674 0.168,1.149 l -0.16,0.929 -1.534,8.915 -0.147,0.85 c -0.088,0.514 -0.269,0.873 -0.541,1.077 -0.273,0.204 -0.653,0.264 -1.141,0.18 -0.54,-0.093 -0.887,-0.305 -1.04,-0.637 -0.153,-0.332 -0.146,-0.985 0.022,-1.96 l 0.425,-2.471 -17.81,-3.066 -0.425,2.471 c -0.173,1.002 -0.379,1.627 -0.618,1.878 -0.24,0.25 -0.624,0.33 -1.151,0.239 -0.474,-0.081 -0.81,-0.261 -1.006,-0.539 -0.196,-0.278 -0.254,-0.654 -0.172,-1.129 l 0.16,-0.929 3.018,-17.533 c 0.077,-0.448 0.266,-0.775 0.566,-0.982 0.3,-0.206 0.68,-0.269 1.142,-0.19 l 6.503,1.12 0.85,0.146 c 0.514,0.089 0.872,0.272 1.076,0.552 0.202,0.279 0.263,0.656 0.182,1.13 -0.096,0.553 -0.306,0.904 -0.629,1.052 -0.324,0.148 -0.98,0.136 -1.969,-0.034 l -5.179,-0.891 z m 10.879,-48.627 c 0.164,-0.41 0.409,-0.679 0.735,-0.807 0.325,-0.129 0.711,-0.104 1.158,0.075 l 4.691,1.884 c 0.707,0.283 1.149,0.573 1.326,0.867 0.177,0.295 0.172,0.678 -0.018,1.149 -0.204,0.509 -0.481,0.805 -0.831,0.887 -0.351,0.083 -1.004,-0.067 -1.959,-0.451 l -3.016,-1.21 -3.975,9.902 8.246,3.311 1.958,-4.877 -0.652,-0.262 c -0.856,-0.344 -1.399,-0.659 -1.63,-0.946 -0.23,-0.287 -0.256,-0.654 -0.077,-1.101 0.18,-0.446 0.434,-0.704 0.765,-0.774 0.33,-0.069 0.961,0.084 1.891,0.457 l 3.463,1.39 c 0.918,0.369 1.483,0.693 1.695,0.972 0.212,0.28 0.231,0.637 0.056,1.071 -0.179,0.447 -0.435,0.708 -0.768,0.783 -0.333,0.076 -0.834,-0.021 -1.504,-0.29 l -0.987,-0.396 -1.957,4.877 6.272,2.518 3.976,-9.903 -2.662,-1.068 c -0.956,-0.384 -1.532,-0.726 -1.727,-1.029 -0.196,-0.301 -0.192,-0.707 0.013,-1.216 0.194,-0.484 0.452,-0.769 0.775,-0.855 0.323,-0.087 0.807,-10e-4 1.453,0.258 l 4.393,1.764 c 0.484,0.194 0.809,0.451 0.976,0.77 0.167,0.32 0.166,0.69 -0.003,1.112 l -6.172,15.375 -0.336,0.838 c -0.19,0.472 -0.439,0.778 -0.748,0.921 -0.31,0.142 -0.694,0.121 -1.153,-0.063 -0.509,-0.204 -0.803,-0.485 -0.883,-0.841 -0.081,-0.357 0.066,-1 0.44,-1.931 l 0.478,-1.191 -16.771,-6.733 -0.479,1.192 c -0.383,0.955 -0.719,1.53 -1.006,1.725 -0.287,0.195 -0.679,0.192 -1.175,-0.007 -0.446,-0.18 -0.735,-0.429 -0.867,-0.748 -0.131,-0.319 -0.107,-0.702 0.073,-1.149 l 0.351,-0.875 6.172,-15.375 z m 34.574,-20.837 c 0.309,0.409 0.464,0.808 0.465,1.199 0,0.392 -0.166,0.845 -0.501,1.361 l -1.792,2.759 c -0.234,0.359 -0.51,0.569 -0.83,0.633 -0.32,0.063 -0.665,-0.026 -1.035,-0.266 -0.427,-0.277 -0.645,-0.586 -0.654,-0.927 -0.01,-0.341 0.186,-0.82 0.587,-1.437 l 0.174,-0.269 -15.623,-9.456 -0.24,0.37 c -0.474,0.729 -0.872,1.164 -1.195,1.305 -0.323,0.141 -0.709,0.066 -1.157,-0.225 -0.404,-0.263 -0.643,-0.557 -0.717,-0.885 -0.074,-0.327 0.016,-0.687 0.271,-1.08 l 3.06,-4.709 c 0.429,-0.662 0.81,-1.052 1.143,-1.171 0.332,-0.119 0.723,-0.033 1.171,0.259 0.415,0.269 0.625,0.597 0.629,0.983 0.005,0.385 -0.208,0.909 -0.637,1.57 l -0.733,1.127 14.663,9.095 -7.476,-9.664 c -0.358,-0.456 -0.549,-0.867 -0.574,-1.234 -0.024,-0.367 0.116,-0.786 0.422,-1.257 0.321,-0.493 0.651,-0.805 0.991,-0.935 0.339,-0.13 0.799,-0.126 1.379,0.011 l 11.836,2.953 -14.236,-9.75 -0.47,0.723 c -0.518,0.796 -0.951,1.28 -1.301,1.451 -0.351,0.171 -0.745,0.114 -1.182,-0.17 -0.449,-0.291 -0.686,-0.613 -0.712,-0.965 -0.027,-0.352 0.171,-0.853 0.594,-1.504 l 3.07,-4.726 c 0.248,-0.381 0.541,-0.606 0.88,-0.673 0.338,-0.067 0.703,0.027 1.096,0.282 0.448,0.292 0.674,0.614 0.676,0.966 0.003,0.352 -0.233,0.893 -0.706,1.622 l -0.252,0.387 15.001,10.414 0.175,-0.269 c 0.4,-0.617 0.756,-0.987 1.069,-1.112 0.311,-0.124 0.68,-0.048 1.107,0.229 0.37,0.241 0.593,0.517 0.669,0.83 0.076,0.312 -0.003,0.648 -0.236,1.007 l -1.792,2.758 c -0.335,0.516 -0.682,0.853 -1.039,1.011 -0.358,0.158 -0.79,0.185 -1.296,0.08 l -12.878,-3.224 8.136,10.523 z m 18.782,-60.973 c 0.31,-0.314 0.64,-0.467 0.99,-0.459 0.35,0.007 0.696,0.18 1.038,0.518 l 3.596,3.553 c 0.542,0.536 0.838,0.973 0.887,1.314 0.049,0.34 -0.105,0.691 -0.462,1.052 -0.385,0.39 -0.755,0.555 -1.11,0.496 -0.355,-0.059 -0.899,-0.451 -1.631,-1.175 l -2.311,-2.284 -7.501,7.591 6.321,6.245 3.693,-3.738 -0.499,-0.493 c -0.656,-0.649 -1.035,-1.15 -1.136,-1.504 -0.102,-0.354 0.017,-0.702 0.355,-1.045 0.338,-0.342 0.673,-0.481 1.004,-0.417 0.332,0.064 0.854,0.449 1.568,1.154 l 2.653,2.622 c 0.704,0.695 1.1,1.213 1.187,1.553 0.087,0.34 -0.034,0.676 -0.363,1.009 -0.338,0.343 -0.676,0.484 -1.012,0.425 -0.336,-0.06 -0.76,-0.343 -1.274,-0.851 l -0.756,-0.747 -3.694,3.738 4.808,4.751 7.5,-7.59 -2.04,-2.016 c -0.732,-0.724 -1.13,-1.263 -1.194,-1.617 -0.064,-0.354 0.097,-0.726 0.483,-1.116 0.366,-0.371 0.715,-0.534 1.047,-0.489 0.331,0.045 0.744,0.312 1.238,0.801 l 3.367,3.327 c 0.371,0.367 0.572,0.73 0.603,1.089 0.03,0.359 -0.115,0.701 -0.434,1.024 l -11.645,11.785 -0.635,0.642 c -0.357,0.361 -0.706,0.548 -1.046,0.559 -0.34,0.012 -0.686,-0.157 -1.038,-0.504 -0.39,-0.386 -0.553,-0.758 -0.489,-1.118 0.064,-0.36 0.448,-0.896 1.153,-1.609 l 0.903,-0.914 -12.855,-12.702 -0.903,0.913 c -0.723,0.733 -1.255,1.133 -1.595,1.201 -0.34,0.068 -0.701,-0.086 -1.081,-0.462 -0.342,-0.338 -0.512,-0.68 -0.509,-1.025 0.002,-0.345 0.173,-0.689 0.511,-1.031 l 0.663,-0.671 11.645,-11.785 z m 37.163,-7.802 -1.582,-21.206 c -0.049,-0.711 -0.031,-1.14 0.054,-1.288 0.085,-0.147 0.398,-0.406 0.939,-0.777 0.541,-0.369 0.927,-0.545 1.159,-0.526 0.232,0.02 0.458,0.189 0.677,0.51 l 11.407,16.668 0.199,-0.136 c 0.629,-0.43 1.122,-0.638 1.481,-0.624 0.358,0.014 0.688,0.242 0.99,0.683 0.272,0.398 0.379,0.762 0.322,1.092 -0.057,0.331 -0.284,0.633 -0.682,0.904 l -0.794,0.544 -3.956,2.708 c -0.74,0.506 -1.284,0.752 -1.632,0.74 -0.349,-0.013 -0.679,-0.245 -0.988,-0.697 -0.28,-0.409 -0.35,-0.802 -0.212,-1.18 0.138,-0.378 0.505,-0.771 1.101,-1.179 l 1.175,-0.804 0.646,-0.442 -8.949,-13.077 1.513,20.11 c 0.048,0.664 0.01,1.123 -0.114,1.379 -0.125,0.255 -0.442,0.557 -0.949,0.904 l -1.556,1.065 c -0.221,0.151 -0.56,0.367 -1.016,0.647 -0.629,0.43 -1.146,0.651 -1.552,0.661 -0.406,0.011 -0.749,-0.188 -1.028,-0.597 -0.303,-0.441 -0.351,-0.861 -0.147,-1.261 0.205,-0.399 0.771,-0.916 1.698,-1.55 l 0.414,-0.283 -10.207,-14.914 -0.314,0.215 c -0.652,0.445 -1.145,0.665 -1.481,0.66 -0.335,-0.005 -0.654,-0.228 -0.956,-0.67 -0.272,-0.397 -0.377,-0.763 -0.314,-1.097 0.063,-0.335 0.293,-0.638 0.69,-0.91 l 0.778,-0.532 4.138,-2.832 c 0.805,-0.552 1.385,-0.823 1.74,-0.814 0.354,0.008 0.686,0.239 0.996,0.691 0.279,0.408 0.352,0.788 0.219,1.138 -0.133,0.35 -0.497,0.729 -1.093,1.137 l -1.225,0.839 -0.844,0.577 9.255,13.524 z m 37.566,-21.851 5.315,-2.21 -6.937,-16.687 -2.853,1.186 -0.611,0.254 c -0.58,0.241 -1.032,0.313 -1.355,0.215 -0.323,-0.097 -0.579,-0.374 -0.769,-0.831 -0.18,-0.432 -0.206,-0.809 -0.078,-1.13 0.127,-0.321 0.4,-0.568 0.82,-0.743 l 10.39,-4.319 c 0.42,-0.175 0.789,-0.194 1.106,-0.058 0.317,0.136 0.566,0.42 0.745,0.852 0.185,0.445 0.202,0.818 0.053,1.119 -0.15,0.301 -0.485,0.559 -1.003,0.775 l -0.722,0.3 -2.853,1.186 6.938,16.688 5.316,-2.21 -1.817,-4.893 c -0.361,-0.936 -0.501,-1.57 -0.421,-1.899 0.08,-0.331 0.367,-0.598 0.861,-0.804 0.469,-0.195 0.866,-0.233 1.191,-0.114 0.324,0.118 0.579,0.4 0.763,0.844 -0.005,-0.012 0.027,0.083 0.097,0.286 0.07,0.202 0.151,0.415 0.244,0.637 l 2.337,6.197 c 0.178,0.461 0.198,0.841 0.06,1.137 -0.137,0.296 -0.441,0.542 -0.91,0.737 l -16.095,6.691 c -0.469,0.195 -0.857,0.237 -1.164,0.126 -0.307,-0.112 -0.568,-0.391 -0.782,-0.837 l -2.727,-6.035 c -0.082,-0.198 -0.215,-0.483 -0.398,-0.855 -0.185,-0.445 -0.217,-0.826 -0.096,-1.144 0.121,-0.319 0.398,-0.567 0.83,-0.747 0.555,-0.231 0.981,-0.26 1.278,-0.086 0.297,0.173 0.65,0.718 1.06,1.634 l 2.187,4.738 z m 47.256,-35.493 3.512,17.728 4.447,-0.881 c 0.984,-0.195 1.643,-0.22 1.979,-0.075 0.335,0.145 0.556,0.486 0.663,1.024 0.093,0.472 0.042,0.85 -0.154,1.134 -0.196,0.285 -0.53,0.473 -1.002,0.567 l -0.925,0.183 -11.943,2.366 -0.885,0.176 c -0.499,0.098 -0.895,0.057 -1.19,-0.123 -0.295,-0.18 -0.49,-0.513 -0.586,-0.998 -0.107,-0.538 -0.03,-0.938 0.232,-1.201 0.261,-0.263 0.884,-0.492 1.868,-0.687 l 4.447,-0.881 -3.512,-17.728 -4.447,0.881 c -1.01,0.2 -1.678,0.234 -2.004,0.101 -0.327,-0.133 -0.542,-0.462 -0.646,-0.987 -0.093,-0.472 -0.039,-0.851 0.164,-1.136 0.202,-0.286 0.539,-0.475 1.012,-0.569 l 0.924,-0.183 11.943,-2.366 c 1.01,-0.2 1.676,-0.227 1.999,-0.079 0.322,0.147 0.536,0.49 0.643,1.028 0.104,0.524 0.034,0.91 -0.211,1.156 -0.244,0.246 -0.871,0.469 -1.881,0.669 l -4.447,0.881 z m 41.169,10.335 10.787,-18.325 c 0.365,-0.613 0.625,-0.956 0.779,-1.028 0.154,-0.073 0.559,-0.107 1.214,-0.103 0.655,0.004 1.073,0.081 1.252,0.229 0.181,0.148 0.269,0.416 0.267,0.804 l -0.129,20.198 0.241,0.001 c 0.763,0.005 1.286,0.115 1.572,0.331 0.287,0.216 0.428,0.591 0.425,1.126 -0.003,0.481 -0.123,0.842 -0.357,1.081 -0.237,0.239 -0.594,0.357 -1.077,0.354 l -0.962,-0.006 -4.794,-0.03 c -0.896,-0.006 -1.484,-0.114 -1.763,-0.322 -0.28,-0.21 -0.418,-0.588 -0.414,-1.136 0.003,-0.495 0.169,-0.859 0.498,-1.09 0.329,-0.232 0.855,-0.346 1.577,-0.341 l 1.424,0.009 0.782,0.005 0.1,-15.846 -10.219,17.386 c -0.338,0.573 -0.631,0.929 -0.879,1.068 -0.249,0.139 -0.68,0.206 -1.295,0.202 l -1.886,-0.012 c -0.267,-0.001 -0.668,-0.017 -1.203,-0.048 -0.762,-0.004 -1.313,-0.118 -1.653,-0.341 -0.339,-0.223 -0.507,-0.582 -0.504,-1.076 0.003,-0.535 0.203,-0.909 0.599,-1.12 0.395,-0.211 1.155,-0.313 2.278,-0.306 l 0.502,0.003 0.114,-18.072 -0.381,-0.002 c -0.789,-0.005 -1.32,-0.106 -1.593,-0.301 -0.273,-0.196 -0.407,-0.561 -0.404,-1.096 0.003,-0.481 0.126,-0.842 0.368,-1.081 0.242,-0.239 0.604,-0.357 1.085,-0.354 l 0.943,0.006 5.014,0.032 c 0.976,0.006 1.607,0.113 1.894,0.323 0.286,0.209 0.427,0.587 0.424,1.136 -0.003,0.494 -0.159,0.848 -0.468,1.06 -0.309,0.212 -0.825,0.315 -1.547,0.311 l -1.484,-0.009 -1.023,-0.007 -0.104,16.387 z m 61.971,-14.286 c 0.432,0.085 0.742,0.276 0.928,0.572 0.187,0.296 0.234,0.68 0.14,1.153 l -0.982,4.958 c -0.148,0.748 -0.35,1.236 -0.607,1.464 -0.257,0.229 -0.635,0.294 -1.133,0.195 -0.538,-0.106 -0.88,-0.324 -1.026,-0.653 -0.146,-0.329 -0.119,-0.998 0.081,-2.008 l 0.632,-3.188 -10.468,-2.073 -1.727,8.716 5.156,1.021 0.136,-0.689 c 0.179,-0.905 0.388,-1.497 0.628,-1.777 0.24,-0.279 0.595,-0.373 1.068,-0.279 0.472,0.094 0.772,0.296 0.901,0.608 0.129,0.312 0.097,0.96 -0.099,1.944 l -0.724,3.659 c -0.193,0.971 -0.406,1.586 -0.642,1.846 -0.236,0.26 -0.583,0.345 -1.042,0.254 -0.472,-0.094 -0.775,-0.297 -0.912,-0.61 -0.136,-0.313 -0.133,-0.824 0.007,-1.532 l 0.207,-1.043 -5.155,-1.021 -1.314,6.63 10.468,2.074 0.557,-2.814 c 0.201,-1.01 0.43,-1.639 0.691,-1.887 0.26,-0.249 0.659,-0.319 1.197,-0.213 0.512,0.102 0.84,0.303 0.985,0.604 0.145,0.301 0.149,0.793 0.014,1.475 l -0.921,4.644 c -0.099,0.511 -0.292,0.879 -0.575,1.102 -0.283,0.223 -0.647,0.291 -1.092,0.203 l -16.252,-3.22 -0.885,-0.175 c -0.5,-0.099 -0.848,-0.287 -1.045,-0.565 -0.197,-0.278 -0.248,-0.659 -0.151,-1.144 0.106,-0.538 0.327,-0.879 0.663,-1.024 0.336,-0.145 0.994,-0.12 1.978,0.075 l 1.26,0.249 3.512,-17.727 -1.26,-0.25 c -1.01,-0.2 -1.637,-0.423 -1.881,-0.669 -0.244,-0.246 -0.314,-0.632 -0.211,-1.156 0.094,-0.472 0.285,-0.802 0.575,-0.99 0.289,-0.188 0.67,-0.236 1.142,-0.142 l 0.926,0.183 16.252,3.22 z m 78.309,55.214 c -3.006,0.794 -5.817,0.296 -8.432,-1.494 -2.627,-1.797 -4.114,-4.229 -4.463,-7.295 -0.348,-3.066 0.52,-6.122 2.604,-9.167 2.062,-3.013 4.599,-4.915 7.61,-5.705 3.013,-0.791 5.815,-0.298 8.409,1.476 2.615,1.79 4.098,4.227 4.451,7.312 0.351,3.085 -0.507,6.139 -2.576,9.162 -2.062,3.013 -4.596,4.916 -7.603,5.711 m -1.698,-20.692 c -2.035,0.689 -3.906,2.281 -5.613,4.775 -1.722,2.516 -2.537,4.838 -2.447,6.966 0.091,2.128 1.07,3.83 2.935,5.107 1.853,1.269 3.797,1.558 5.834,0.869 2.034,-0.689 3.905,-2.281 5.612,-4.775 1.707,-2.494 2.513,-4.814 2.418,-6.961 -0.094,-2.147 -1.067,-3.854 -2.922,-5.123 -1.842,-1.261 -3.782,-1.547 -5.817,-0.858 m 48.713,36.52 -7.502,-7.59 -12.854,12.702 2.368,2.397 c 0.714,0.723 1.104,1.264 1.167,1.624 0.065,0.36 -0.097,0.732 -0.488,1.118 -0.343,0.338 -0.689,0.501 -1.039,0.49 -0.349,-0.012 -0.693,-0.189 -1.031,-0.531 l -0.662,-0.671 -6.36,-6.434 -0.606,-0.614 c -0.366,-0.371 -0.553,-0.727 -0.561,-1.067 -0.006,-0.34 0.165,-0.684 0.517,-1.032 0.391,-0.386 0.764,-0.544 1.123,-0.476 0.359,0.069 0.887,0.455 1.582,1.159 l 1.762,1.783 12.855,-12.702 -1.761,-1.784 c -0.715,-0.723 -1.105,-1.255 -1.168,-1.595 -0.065,-0.341 0.093,-0.7 0.473,-1.075 0.343,-0.339 0.685,-0.507 1.025,-0.505 0.339,0.002 0.679,0.174 1.018,0.517 l 0.662,0.67 12.505,12.655 c 0.32,0.324 0.477,0.667 0.469,1.031 -0.007,0.364 -0.176,0.711 -0.509,1.04 l -4.694,4.638 -0.613,0.606 c -0.372,0.367 -0.73,0.552 -1.075,0.554 -0.345,0.003 -0.687,-0.167 -1.025,-0.509 -0.395,-0.4 -0.558,-0.774 -0.49,-1.124 0.069,-0.349 0.459,-0.876 1.174,-1.581 l 3.738,-3.694 z m 27.248,32.928 -15.154,9.846 2.469,3.801 c 0.546,0.841 0.814,1.444 0.804,1.809 -0.01,0.365 -0.244,0.697 -0.703,0.996 -0.404,0.262 -0.775,0.355 -1.111,0.279 -0.336,-0.077 -0.637,-0.316 -0.899,-0.72 l -0.514,-0.791 -6.632,-10.21 -0.492,-0.756 c -0.277,-0.427 -0.385,-0.81 -0.328,-1.15 0.058,-0.341 0.294,-0.646 0.709,-0.915 0.46,-0.299 0.861,-0.376 1.201,-0.231 0.342,0.145 0.785,0.638 1.331,1.479 l 2.47,3.801 15.155,-9.845 -2.468,-3.801 c -0.562,-0.864 -0.84,-1.472 -0.838,-1.824 0.002,-0.352 0.227,-0.674 0.676,-0.965 0.403,-0.263 0.775,-0.353 1.115,-0.271 0.34,0.082 0.642,0.325 0.904,0.729 l 0.514,0.79 6.633,10.21 c 0.56,0.863 0.832,1.472 0.815,1.826 -0.017,0.354 -0.256,0.68 -0.716,0.979 -0.448,0.291 -0.832,0.369 -1.15,0.234 -0.32,-0.136 -0.761,-0.635 -1.32,-1.498 l -2.471,-3.802 z m 22.512,38.246 0.127,-0.007 c 1.518,-0.02 2.443,0.38 2.771,1.199 l 0.426,1.061 c 0.14,0.348 0.139,0.679 0,0.995 -0.14,0.315 -0.599,0.852 -1.375,1.611 l -14.844,13.74 0.09,0.223 c 0.258,0.645 0.338,1.139 0.238,1.482 -0.099,0.343 -0.392,0.611 -0.876,0.806 -0.434,0.174 -0.809,0.199 -1.127,0.074 -0.317,-0.125 -0.559,-0.399 -0.729,-0.821 l -2.346,-5.844 c -0.289,-0.72 -0.387,-1.25 -0.293,-1.59 0.094,-0.341 0.389,-0.611 0.887,-0.81 0.459,-0.184 0.852,-0.18 1.181,0.012 0.33,0.192 0.612,0.579 0.845,1.163 l 0.994,2.475 13.758,-12.677 -18.772,0.187 0.822,2.048 c 0.239,0.596 0.305,1.073 0.197,1.434 -0.107,0.36 -0.39,0.632 -0.849,0.816 -0.497,0.2 -0.896,0.212 -1.196,0.037 -0.301,-0.175 -0.597,-0.628 -0.892,-1.36 l -2.264,-5.64 c -0.17,-0.422 -0.184,-0.791 -0.044,-1.106 0.14,-0.316 0.427,-0.561 0.861,-0.735 0.484,-0.194 0.881,-0.202 1.191,-0.024 0.308,0.179 0.588,0.578 0.838,1.198 l 0.096,0.242 20.285,-0.189 z m 19.304,56.778 c 0.075,0.435 0.008,0.793 -0.202,1.073 -0.209,0.28 -0.551,0.461 -1.024,0.543 l -4.983,0.857 c -0.751,0.13 -1.279,0.115 -1.584,-0.042 -0.306,-0.158 -0.502,-0.487 -0.588,-0.988 -0.093,-0.541 -0.011,-0.938 0.243,-1.192 0.255,-0.254 0.889,-0.468 1.904,-0.643 l 3.202,-0.552 -1.81,-10.515 -8.757,1.507 0.892,5.179 0.692,-0.119 c 0.91,-0.157 1.537,-0.173 1.884,-0.05 0.347,0.123 0.561,0.423 0.643,0.897 0.081,0.475 0,0.828 -0.244,1.06 -0.246,0.232 -0.863,0.433 -1.851,0.603 l -3.677,0.633 c -0.974,0.168 -1.626,0.189 -1.953,0.062 -0.328,-0.127 -0.531,-0.421 -0.61,-0.882 -0.082,-0.475 -10e-4,-0.831 0.243,-1.07 0.244,-0.239 0.723,-0.419 1.434,-0.542 l 1.047,-0.18 -0.892,-5.179 -6.661,1.147 1.81,10.516 2.827,-0.487 c 1.015,-0.175 1.685,-0.185 2.01,-0.03 0.326,0.154 0.535,0.501 0.627,1.042 0.088,0.514 0.019,0.892 -0.212,1.135 -0.228,0.243 -0.687,0.424 -1.372,0.542 l -4.665,0.803 c -0.513,0.088 -0.925,0.04 -1.236,-0.144 -0.31,-0.184 -0.503,-0.5 -0.58,-0.948 l -2.811,-16.328 -0.153,-0.889 c -0.087,-0.501 -0.034,-0.893 0.153,-1.177 0.19,-0.283 0.528,-0.467 1.015,-0.551 0.54,-0.093 0.938,-0.009 1.193,0.253 0.256,0.261 0.468,0.886 0.638,1.874 l 0.219,1.265 17.809,-3.066 -0.217,-1.265 c -0.174,-1.015 -0.191,-1.68 -0.049,-1.996 0.142,-0.317 0.477,-0.52 1.004,-0.611 0.475,-0.081 0.851,-0.021 1.131,0.182 0.279,0.203 0.459,0.542 0.541,1.016 l 0.16,0.929 2.81,16.328 z m -17.349,39.037 c 0.035,1.832 0.402,3.203 1.101,4.112 0.7,0.91 1.725,1.352 3.075,1.326 1.337,-0.026 2.334,-0.516 2.992,-1.471 0.656,-0.956 0.967,-2.369 0.932,-4.241 l -0.079,-4.151 -8.101,0.154 0.08,4.271 z m 10.688,-4.476 0.052,2.667 c 0.015,0.843 0.201,1.518 0.559,2.026 0.357,0.508 1.138,1.145 2.343,1.911 l 5.909,3.74 c 0.054,0.039 0.122,0.098 0.204,0.177 0.975,0.61 1.468,1.242 1.481,1.897 l 0.043,2.267 c 0.008,0.454 -0.109,0.801 -0.352,1.039 -0.243,0.239 -0.597,0.363 -1.066,0.372 -0.508,0.009 -0.867,-0.124 -1.08,-0.401 -0.213,-0.277 -0.326,-0.79 -0.341,-1.538 l -0.013,-0.662 -6.253,-3.914 c -0.379,-0.247 -0.705,-0.505 -0.977,-0.773 -0.273,-0.27 -0.513,-0.576 -0.72,-0.92 -0.395,1.693 -1.138,3.021 -2.222,3.985 -1.085,0.963 -2.396,1.459 -3.933,1.489 -1.137,0.021 -2.203,-0.216 -3.203,-0.712 -1,-0.496 -1.809,-1.186 -2.427,-2.07 -0.481,-0.687 -0.829,-1.533 -1.042,-2.538 -0.212,-1.006 -0.339,-2.532 -0.378,-4.577 l -0.16,-8.463 c -0.009,-0.468 0.099,-0.821 0.321,-1.059 0.223,-0.239 0.561,-0.362 1.016,-0.371 0.521,-0.01 0.879,0.131 1.071,0.421 0.193,0.291 0.299,0.937 0.318,1.94 l 0.022,1.163 18.249,-0.346 -0.021,-1.163 -0.012,-0.662 c -0.013,-0.615 0.086,-1.059 0.295,-1.33 0.209,-0.272 0.56,-0.412 1.055,-0.421 0.468,-0.009 0.828,0.104 1.079,0.34 0.252,0.236 0.382,0.581 0.391,1.036 l 0.128,6.738 c 0.015,0.776 -0.082,1.306 -0.291,1.591 -0.208,0.285 -0.58,0.432 -1.114,0.442 -0.494,0.01 -0.853,-0.144 -1.072,-0.461 -0.221,-0.317 -0.338,-0.863 -0.353,-1.638 l -0.026,-1.364 -7.48,0.142 z"
               id="path3044"
               style="fill:#f6921e;fill-opacity:1;fill-rule:nonzero;stroke:none" />
          </g>
        </g>
      </g>
    </g>
  </g>
</svg>
