<?xml version="1.0" encoding="utf-8"?>
<!-- Generator: Adobe Illustrator 18.0.0, SVG Export Plug-In . SVG Version: 6.00 Build 0)  -->
<!DOCTYPE svg PUBLIC "-//W3C//DTD SVG 1.1//EN" "http://www.w3.org/Graphics/SVG/1.1/DTD/svg11.dtd">
<svg version="1.1" id="Layer_1" xmlns="http://www.w3.org/2000/svg" xmlns:xlink="http://www.w3.org/1999/xlink" x="0px" y="0px"
	 viewBox="392 576.4 44.4 49.2" enable-background="new 392 576.4 44.4 49.2" xml:space="preserve">
<g>
	<g>
		<path fill="#666666" d="M414.1,585.5c0.6,0,1.1-0.5,1.1-1.1c0-0.6-0.5-1.1-1.1-1.1c-0.6,0-1.1,0.5-1.1,1.1
			C413,585,413.5,585.5,414.1,585.5"/>
		<path fill="none" stroke="#666666" d="M414.1,585.5c0.6,0,1.1-0.5,1.1-1.1c0-0.6-0.5-1.1-1.1-1.1c-0.6,0-1.1,0.5-1.1,1.1
			C413,585,413.5,585.5,414.1,585.5z"/>
		<g>
			<g>
				<path fill="none" stroke="#666666" stroke-width="1.497" d="M414.2,624.8c11.8,0,21.5-9.6,21.5-21.5c0-11.8-9.6-21.5-21.5-21.5
					c-11.8,0-21.5,9.6-21.5,21.5C392.7,615.2,402.4,624.8,414.2,624.8z"/>
				<path fill="#FFFFFF" d="M400.4,583.6c0.7-0.4,1.4-0.9,2-1.4c2.2-1.7,4.7-3.5,9.4-2.1c-0.5,0.4-0.9,0.8-1.4,1.3
					C408.6,583.4,406.5,585.6,400.4,583.6"/>
				<path fill="none" stroke="#666666" stroke-width="1.497" d="M400.4,583.6c0.7-0.4,1.4-0.9,2-1.4c2.2-1.7,4.7-3.5,9.4-2.1
					c-0.5,0.4-0.9,0.8-1.4,1.3C408.6,583.4,406.5,585.6,400.4,583.6z"/>
				<path fill="#FFFFFF" d="M427.7,585.9c-0.7-0.4-1.4-0.9-2-1.4c-2.2-1.7-4.7-3.5-9.4-2.1c0.5,0.4,0.9,0.8,1.4,1.3
					C419.5,585.6,421.6,587.8,427.7,585.9"/>
				<path fill="none" stroke="#666666" stroke-width="1.497" d="M427.7,585.9c-0.7-0.4-1.4-0.9-2-1.4c-2.2-1.7-4.7-3.5-9.4-2.1
					c0.5,0.4,0.9,0.8,1.4,1.3C419.5,585.6,421.6,587.8,427.7,585.9z"/>
			</g>
		</g>
		
			<line fill="none" stroke="#666666" stroke-width="1.243" stroke-linecap="round" stroke-linejoin="round" x1="414.1" y1="583.8" x2="414.1" y2="577"/>
	</g>
</g>
</svg>
