<?xml version="1.0" encoding="utf-8"?>
<!-- Generator: Adobe Illustrator 18.0.0, SVG Export Plug-In . SVG Version: 6.00 Build 0)  -->
<!DOCTYPE svg PUBLIC "-//W3C//DTD SVG 1.1//EN" "http://www.w3.org/Graphics/SVG/1.1/DTD/svg11.dtd">
<svg version="1.1" id="Layer_1" xmlns="http://www.w3.org/2000/svg" xmlns:xlink="http://www.w3.org/1999/xlink" x="0px" y="0px"
	 viewBox="0 0 311.2 311.2" enable-background="new 0 0 311.2 311.2" xml:space="preserve">
<g>
	<defs>
		<rect id="SVGID_1_" width="311.2" height="311.2"/>
	</defs>
	<clipPath id="SVGID_2_">
		<use xlink:href="#SVGID_1_"  overflow="visible"/>
	</clipPath>
	<path clip-path="url(#SVGID_2_)" fill="#F7941E" d="M155.6,311.2c85.9,0,155.6-69.7,155.6-155.6S241.5,0,155.6,0S0,69.7,0,155.6
		S69.7,311.2,155.6,311.2"/>
</g>
<g>
	<defs>
		<rect id="SVGID_3_" x="29.8" y="109.1" width="257.3" height="77.9"/>
	</defs>
	<clipPath id="SVGID_4_">
		<use xlink:href="#SVGID_3_"  overflow="visible"/>
	</clipPath>
	<path clip-path="url(#SVGID_4_)" fill="#FFFFFF" d="M250.2,177.8c-0.8,0.6-1.5,1.3-1.9,2.3c-0.6,1.2-0.6,2.5,0.1,3.7
		c0.7,1,1.7,1.5,3.1,1.5c1,0,1.9-0.3,2.8-0.9c0.9-0.6,1.5-1.3,1.9-2.3c0.5-1.4,0.5-2.6-0.2-3.6c-0.7-1.1-1.7-1.6-3.1-1.6
		C251.9,177,251,177.3,250.2,177.8 M284,111.4c-0.7,0.1-1.2,0.5-1.6,1.1c-2.1,3.4-4,6.6-5.7,9.5c-1.7,2.9-3.3,5.8-4.9,8.5
		c-1.5,2.8-3,5.5-4.3,8.3c-1.4,2.8-2.7,5.7-4.1,8.8c-1.4,3.1-2.8,6.4-4.2,10.1c-1.5,3.6-3,7.6-4.6,11.9c-0.3,0.6-0.3,1.2,0.1,1.9
		s0.8,1.1,1.5,1.4c0.2,0.1,0.5,0.1,0.9,0.1c1.2,0,1.9-0.5,2.3-1.6c1.6-4.3,3.1-8.2,4.5-11.7c1.4-3.5,2.8-6.8,4.1-9.9
		c1.4-3.1,2.7-6,4.1-8.7c1.4-2.7,2.8-5.5,4.3-8.2c1.5-2.8,3.1-5.6,4.8-8.4c1.7-2.9,3.6-6,5.6-9.3c0.3-0.6,0.4-1.3,0.3-1.9
		c-0.2-0.7-0.5-1.2-1.1-1.5C285.3,111.4,284.7,111.3,284,111.4 M226.1,161.4c-2.5-1-4.4-2.3-5.7-4c-1.9-2.2-2.7-4.6-2.2-7.1
		c0.4-3.2,2.4-6.6,6-10.2c0.1-0.1,0.1-0.1,0.2-0.2c0-0.1,0.1-0.1,0.2-0.2c1.1,0.3,2,0.8,2.6,1.6c0.6,0.8,1.1,1.7,1.4,2.6
		c0.3,1,0.5,2,0.6,3s0.1,2,0,2.8C228.8,153.4,227.8,157.3,226.1,161.4 M212.2,177.8c-3.2,1.8-6.5,2.7-9.9,2.7h-0.9
		c-0.3,0-0.6,0-0.9-0.1c-5.4-0.5-8-3.1-7.8-7.8c0.1-1.4,0.4-3,0.9-4.7c0.5-1.7,1.3-3.5,2.3-5.4c1-1.9,2.1-3.8,3.4-5.7
		c1.3-1.9,2.8-3.8,4.4-5.6c2.2-2.4,4.4-4.5,6.5-6.2c2.2-1.8,4.3-3.1,6.3-4.1c-2,3-3.2,5.9-3.6,8.6c-0.5,4.1,0.6,7.9,3.5,11.1
		c1.8,2.1,4.3,3.8,7.3,5.2c-0.9,1.6-1.8,3-2.8,4.2C218.3,173.4,215.4,176,212.2,177.8 M251,158.5c-0.7-0.1-1.3,0.1-1.9,0.5
		c-2,1.6-4.4,2.7-7.1,3.4c-2.7,0.7-5.6,0.9-8.6,0.7c-0.8,0-1.6-0.1-2.5-0.3c0.1-0.2,0.2-0.4,0.3-0.6c0-0.2,0.1-0.4,0.3-0.5
		c1.6-4.2,2.5-8.1,2.7-11.8c0.2-4.1-0.4-7.5-1.8-10.1c-1.9-3.1-4.6-4.9-8.2-5.3c-0.3-0.1-0.8-0.1-1.5-0.1c-3.6,0-7.5,1.4-11.7,4.1
		c-3.8,2.4-7.5,5.5-10.9,9.5c-1.7,2-3.3,4-4.7,6c-1.4,2-2.7,4.1-3.8,6.1c-2.4,4.6-3.7,8.7-3.9,12.5c-0.1,3.6,0.8,6.6,2.8,8.9
		c2.2,2.4,5.4,3.8,9.7,4.2c0.3,0.1,0.7,0.1,1.1,0.1h1.2c4.2,0,8.3-1.1,12.1-3.2c3.9-2.1,7.4-5.3,10.5-9.3c1.5-1.8,2.7-3.6,3.7-5.6
		c0.7,0.1,1.5,0.3,2.2,0.4c0.7,0.1,1.4,0.2,2.2,0.3c0.5,0.1,0.9,0.1,1.4,0.1h1.4c1.2,0,2.4-0.1,3.6-0.2c1.2-0.1,2.4-0.3,3.5-0.6
		c1.8-0.5,3.4-1.1,5-1.8c1.5-0.7,3-1.6,4.3-2.6c0.5-0.4,0.9-1,1-1.7c0.1-0.7-0.1-1.3-0.5-1.9C252.3,159,251.8,158.7,251,158.5
		 M195.4,115.9c-0.3,0.8-0.9,2-1.9,3.5c-1,1.5-2.3,3.5-4,5.9c-1.7,2.4-4,5.2-6.9,8.6c-0.8,1-1.6,1.9-2.5,2.8
		c-0.8,0.9-1.6,1.9-2.5,2.8c0.3-0.5,0.6-1.1,0.9-1.5c0.2-0.5,0.5-1,0.9-1.5c1.8-3.2,3.5-6.2,5.3-9c1.8-2.8,3.4-5.2,5-7.1
		c1.8-2.2,3.1-3.7,4.1-4.5c1-0.8,1.6-1.4,2-1.6C195.9,114.5,195.7,115.1,195.4,115.9 M180.8,181.6c2.7-2.2,5.2-4.8,7.6-7.8
		c2.4-3,4.6-6.3,6.6-9.8c0.3-0.5,0.4-1.1,0.2-1.8c-0.2-0.6-0.6-1.1-1.2-1.5c-0.5-0.3-1.1-0.4-1.8-0.2c-0.6,0.2-1.1,0.6-1.5,1.1
		c-1.8,3.3-3.8,6.3-6,9c-2.2,2.8-4.6,5.1-6.9,7.1c-2.5,2-4.5,3.2-6.3,3.8s-3,0.7-3.8,0.4c-1.2-0.3-1.9-1.4-2.3-3.2
		c-0.4-1.8-0.4-4.1-0.1-7c0.3-2.2,0.9-4.8,1.8-7.8c0.9-3,2.2-6.3,3.7-10l0.1-0.1c1.8-1.8,3.5-3.5,4.9-5.1c1.4-1.5,3.1-3.3,4.9-5.3
		c1.8-2,3.7-4.1,5.5-6.3c3.5-4.1,6.2-7.5,8.2-10.3c2-2.8,3.5-5.1,4.5-7c1-1.9,1.6-3.4,1.7-4.5c0.2-1.1,0.2-2,0.1-2.7
		c-0.3-1.6-1.3-2.7-2.8-3.4c-1.5-0.5-3.1-0.3-4.8,0.7c-1.8,1-3.6,2.7-5.6,5.2c-2,2.4-3.9,5-5.7,7.7c-1.8,2.7-3.4,5.4-4.9,7.9
		s-2.5,4.5-3.2,5.8c-1.7,3.1-3.3,6.3-4.8,9.4c-1.5,3.1-2.8,6.2-4,9.1c-2.5,6.5-4,11.9-4.6,16c-0.5,4-0.3,7.4,0.5,10.1
		c0.6,1.8,1.4,3,2.4,3.8c1,0.7,1.9,1.3,2.8,1.6c0.8,0.2,1.7,0.3,2.7,0.3C172.3,187,176.3,185.2,180.8,181.6 M165.4,115.9
		c-0.3,0.8-0.9,2-1.9,3.5c-1,1.5-2.3,3.5-4,5.9c-1.7,2.4-4,5.2-6.9,8.6c-0.8,1-1.6,1.9-2.4,2.8c-0.8,0.9-1.6,1.9-2.5,2.8
		c0.3-0.5,0.6-1.1,0.9-1.5c0.2-0.5,0.5-1,0.9-1.5c1.8-3.2,3.5-6.2,5.3-9c1.8-2.8,3.4-5.2,5-7.1c1.8-2.2,3.1-3.7,4.1-4.5
		c1-0.8,1.7-1.4,2-1.6C165.9,114.5,165.7,115.1,165.4,115.9 M150.8,181.6c2.7-2.2,5.2-4.8,7.6-7.8c2.4-3,4.6-6.3,6.6-9.8
		c0.3-0.5,0.4-1.1,0.2-1.8c-0.2-0.6-0.6-1.1-1.2-1.5c-0.5-0.3-1.1-0.4-1.8-0.2c-0.6,0.2-1.1,0.6-1.5,1.1c-1.8,3.3-3.8,6.3-6,9
		c-2.2,2.8-4.6,5.1-6.9,7.1c-2.5,2-4.5,3.2-6.3,3.8c-1.7,0.5-3,0.7-3.8,0.4c-1.2-0.3-1.9-1.4-2.3-3.2c-0.4-1.8-0.4-4.1-0.1-7
		c0.3-2.2,0.9-4.8,1.8-7.8c0.9-3,2.2-6.3,3.7-10l0.1-0.1c1.8-1.8,3.5-3.5,4.9-5.1c1.4-1.5,3.1-3.3,4.9-5.3c1.8-2,3.7-4.1,5.5-6.3
		c3.5-4.1,6.2-7.5,8.2-10.3c2-2.8,3.5-5.1,4.5-7c1-1.9,1.6-3.4,1.7-4.5c0.2-1.1,0.2-2,0.1-2.7c-0.3-1.6-1.3-2.7-2.8-3.4
		c-1.5-0.5-3.1-0.3-4.8,0.7c-1.8,1-3.6,2.7-5.6,5.2c-2,2.4-3.9,5-5.7,7.7c-1.8,2.7-3.4,5.4-4.9,7.9c-1.5,2.6-2.5,4.5-3.2,5.8
		c-1.7,3.1-3.3,6.3-4.8,9.4c-1.5,3.1-2.8,6.2-4,9.1c-2.5,6.5-4,11.9-4.6,16c-0.5,4-0.3,7.4,0.5,10.1c0.6,1.8,1.4,3,2.4,3.8
		c1,0.7,1.9,1.3,2.8,1.6c0.8,0.2,1.7,0.3,2.7,0.3C142.3,187,146.4,185.2,150.8,181.6 M90.2,154.5c2.5-3.2,5.4-6.1,8.6-8.9
		c3.6-2.9,6.5-4.6,8.8-5.2c2.3-0.6,3.9-0.6,4.7-0.1c1.4,0.9,1.7,2.7,1,5.4c-0.5,2.2-1.6,4.4-3.2,6.6c-1.6,2.2-3.5,4.2-5.9,6.1
		c-2.9,2.2-6.1,4-9.6,5.4c-3.5,1.4-7.4,2.5-11.6,3.1c0.3-0.8,0.6-1.7,1.1-2.7C85.8,160.8,87.7,157.6,90.2,154.5 M133.3,160.5
		c-0.7,0.1-1.2,0.5-1.6,1c-2.6,3.7-5.6,6.8-8.9,9.3c-3.4,2.5-6.9,4.5-10.5,6.1c-3.6,1.5-7.3,2.6-10.9,3.2c-3.6,0.6-6.9,0.8-10,0.5
		c-2.9-0.3-5-0.8-6.4-1.5c-1.4-0.7-2.3-1.4-2.6-2.1c-0.7-1.3-0.9-3-0.5-5c5.1-0.6,9.8-1.7,14.1-3.4c4.3-1.6,8.2-3.8,11.6-6.4
		c2.9-2.2,5.2-4.6,7.1-7.3c1.9-2.7,3.1-5.4,3.8-8.1c0.5-2.4,0.5-4.5-0.1-6.5c-0.6-1.9-1.7-3.4-3.2-4.4c-0.7-0.4-1.6-0.7-2.7-1
		c-1.1-0.3-2.4-0.3-4-0.1c-1.6,0.2-3.5,0.9-5.6,1.9s-4.6,2.6-7.3,4.8v0.1c-3.5,3.1-6.7,6.3-9.4,9.7c-2.7,3.4-4.9,7-6.6,10.6
		c-0.7,1.6-1.4,3.2-1.8,4.8c-0.5,1.6-0.8,3.1-1,4.5c-0.3,3.2,0,5.9,1,8c1,1.9,2.7,3.4,5.2,4.5c2,1,4.7,1.6,8,1.9
		c0.5,0.1,1.1,0.1,1.6,0.1h1.6c3.2,0,6.5-0.3,9.8-1c3.3-0.7,6.6-1.7,9.8-3.1c4.6-1.8,8.7-4.2,12.5-7.1c3.7-2.9,7-6.3,9.7-10.1
		c0.4-0.6,0.5-1.3,0.4-1.9c-0.1-0.7-0.5-1.2-1-1.6C134.6,160.5,133.9,160.4,133.3,160.5 M93.8,115.2c-0.1-0.7-0.5-1.2-1-1.6
		c-0.6-0.3-1.3-0.4-1.9-0.3c-0.7,0.1-1.2,0.5-1.6,1c-1.4,2-2.9,4.4-4.5,7.1c-1.6,2.7-3.3,5.6-5.1,8.7c-1.8,3.1-3.5,6.3-5.3,9.6
		c-1.8,3.3-3.5,6.7-5.1,10c-0.7,1.4-1.3,2.8-2,4.1c-0.6,1.3-1.2,2.6-1.8,3.9c-2.2,0.5-4.2,1.1-6.2,1.5c-1.9,0.5-3.8,1-5.5,1.4
		c-1.7,0.5-3.3,0.9-4.6,1.2c-1.4,0.3-2.6,0.6-3.7,0.8c1.7-3.6,3.4-7.2,5.1-10.7c1.7-3.5,3.3-7.2,5-10.9c1.6-3.7,3.3-7.6,5.1-11.5
		c1.7-3.9,3.5-8.1,5.4-12.6c0.3-0.7,0.3-1.3,0-1.9c-0.3-0.6-0.7-1.1-1.4-1.4c-0.6-0.3-1.2-0.3-1.9,0c-0.6,0.3-1.1,0.7-1.4,1.4
		c-2,4.6-3.8,9-5.6,13.1c-1.8,4.1-3.5,8.1-5.3,12c-1.7,3.9-3.5,7.7-5.2,11.4c-1.7,3.7-3.5,7.5-5.4,11.3c-0.7,0.2-1.1,0.6-1.3,1.3
		c-0.3,0.6-0.3,1.2-0.1,1.6c-1.3,2.5-2.6,5.1-4,7.7c-1.4,2.6-2.8,5.3-4.2,8.2c-0.3,0.6-0.4,1.2-0.2,1.9c0.2,0.6,0.6,1.1,1.2,1.5
		c0.4,0.2,0.8,0.3,1.2,0.3c1,0,1.8-0.4,2.2-1.3c1.5-2.9,2.9-5.6,4.2-8.2c1.3-2.6,2.6-5.2,3.9-7.8H43c1.4,0,3.1-0.2,5.1-0.7
		c2-0.4,4.3-1,6.9-1.8c1.2-0.3,2.5-0.7,3.8-1c1.3-0.3,2.7-0.7,4.2-1c-0.3,0.9-0.6,1.7-0.9,2.5c-0.3,0.8-0.5,1.6-0.8,2.3
		c-2,6.4-2.6,11-1.7,13.9c0.3,1.2,0.8,2,1.5,2.6c0.6,0.6,1.2,1,1.8,1.2c0.2,0.1,0.5,0.2,1,0.2c1.1,0,1.9-0.5,2.3-1.5
		c0.3-0.7,0.3-1.3,0-2c-0.3-0.6-0.7-1.1-1.3-1.4c-0.2,0-0.3-0.2-0.4-0.6c-0.1-0.5-0.2-1.6-0.1-3.2c0.1-1.6,0.7-4.1,1.8-7.6
		c0.3-1.2,0.8-2.4,1.3-3.7c0.5-1.3,1-2.6,1.6-4c1.2-0.3,2.5-0.5,3.8-0.8c1.3-0.2,2.6-0.5,4-0.7c0.7-0.1,1.2-0.5,1.6-1
		c0.4-0.5,0.5-1.2,0.4-1.9c-0.1-0.7-0.5-1.3-1-1.7c-0.5-0.4-1.2-0.5-1.8-0.4c-0.8,0.1-1.5,0.3-2.2,0.4c-0.7,0.1-1.5,0.3-2.2,0.4
		c0.6-1.5,1.3-3,2.1-4.6c1.6-3.3,3.2-6.5,5-9.9c1.8-3.3,3.5-6.5,5.3-9.5c1.7-3.1,3.4-5.9,5.1-8.6c1.6-2.7,3.1-5,4.4-6.9
		C93.8,116.5,93.9,115.9,93.8,115.2"/>
</g>
</svg>
