<?xml version="1.0" encoding="utf-8"?>
<!-- Generator: Adobe Illustrator 18.0.0, SVG Export Plug-In . SVG Version: 6.00 Build 0)  -->
<!DOCTYPE svg PUBLIC "-//W3C//DTD SVG 1.1//EN" "http://www.w3.org/Graphics/SVG/1.1/DTD/svg11.dtd">
<svg version="1.1" id="Layer_1" xmlns="http://www.w3.org/2000/svg" xmlns:xlink="http://www.w3.org/1999/xlink" x="0px" y="0px"
	 viewBox="0 0 433.8 433.8" enable-background="new 0 0 433.8 433.8" xml:space="preserve">
<g>
	<defs>
		<rect id="SVGID_1_" y="0" width="433.8" height="433.8"/>
	</defs>
	<clipPath id="SVGID_2_">
		<use xlink:href="#SVGID_1_"  overflow="visible"/>
	</clipPath>
	<path clip-path="url(#SVGID_2_)" fill="#FFFFFF" d="M216.9,433.8c119.8,0,216.9-97.1,216.9-216.9S336.7,0,216.9,0S0,97.1,0,216.9
		S97.1,433.8,216.9,433.8"/>
	<path clip-path="url(#SVGID_2_)" fill="#F7941E" d="M356.5,315.8c-0.2,0.3-0.3,0.6-0.3,0.9s0.2,0.5,0.5,0.7
		c0.4,0.2,0.7,0.3,0.9,0.2c0.3-0.1,0.6-0.5,1-1.1l1.9-2.9l11.6,7.6l-1.9,2.9c-0.4,0.7-0.7,1.1-0.7,1.4s0.2,0.5,0.5,0.7
		c0.3,0.2,0.6,0.3,0.9,0.2c0.3-0.1,0.5-0.2,0.7-0.6l0.4-0.6l5.1-7.8c0.4-0.7,0.6-1.1,0.6-1.4c0-0.3-0.2-0.5-0.5-0.8
		c-0.3-0.2-0.6-0.3-0.9-0.2c-0.2,0.1-0.6,0.5-1,1.1l-1.9,2.9l-11.6-7.6l1.9-2.9c0.4-0.6,0.6-1.1,0.6-1.4c0-0.3-0.2-0.5-0.5-0.8
		c-0.3-0.2-0.6-0.3-0.9-0.2c-0.3,0.1-0.5,0.2-0.7,0.5l-0.4,0.6l-5.1,7.8L356.5,315.8z M332.1,342.4c-0.3,0.3-0.4,0.6-0.4,0.8
		c0,0.3,0.1,0.5,0.4,0.8c0.3,0.3,0.6,0.4,0.9,0.4c0.3-0.1,0.7-0.4,1.2-0.9l1.3-1.4l9.9,9.7l-1.3,1.4c-0.5,0.6-0.8,1-0.9,1.2
		c0,0.3,0.1,0.5,0.4,0.8c0.3,0.3,0.5,0.4,0.8,0.4c0.3,0,0.5-0.1,0.8-0.4l0.5-0.5l9.6-9.8c0.2-0.2,0.4-0.5,0.4-0.8
		c0-0.3-0.1-0.5-0.4-0.8l-3.6-3.5l-0.5-0.5c-0.3-0.3-0.6-0.4-0.8-0.4c-0.3,0-0.5,0.1-0.8,0.4c-0.3,0.3-0.4,0.6-0.4,0.9
		c0.1,0.3,0.4,0.7,0.9,1.2l2.9,2.8l-5.7,5.9l-9.9-9.7l1.8-1.9c0.5-0.6,0.8-1,0.9-1.3c0-0.3-0.1-0.6-0.4-0.9
		c-0.3-0.3-0.5-0.4-0.8-0.4c-0.3,0-0.5,0.1-0.8,0.4l-0.5,0.5l-4.9,5L332.1,342.4z M309.2,363.4c0.1-1.6,0.8-3,2.2-3.9
		c1.4-1,2.9-1.2,4.5-0.7c1.6,0.5,3,1.7,4.3,3.6s2,3.7,1.9,5.3c-0.1,1.7-0.8,3-2.2,4c-1.4,1-2.9,1.2-4.5,0.7c-1.6-0.5-3-1.7-4.3-3.6
		C309.8,366.8,309.1,365,309.2,363.4 M306.8,363.3c-0.3,2.4,0.4,4.7,2,7c1.6,2.3,3.6,3.8,5.9,4.4c2.3,0.6,4.5,0.2,6.5-1.2
		c2-1.4,3.1-3.3,3.4-5.6c0.3-2.4-0.4-4.7-2-7c-1.6-2.3-3.6-3.8-5.9-4.4c-2.3-0.6-4.5-0.2-6.5,1.2C308.1,359,307,360.9,306.8,363.3
		 M238.7,384c-0.2,0.2-0.2,0.5-0.1,0.9c0.1,0.4,0.2,0.7,0.5,0.8c0.3,0.1,0.8,0.1,1.5,0l1-0.2l2.6,13.7l-1,0.2
		c-0.8,0.1-1.3,0.3-1.4,0.5c-0.2,0.2-0.2,0.5-0.2,0.9c0.1,0.4,0.2,0.6,0.4,0.8s0.5,0.2,0.9,0.1l0.7-0.1l12.5-2.4
		c0.3-0.1,0.6-0.2,0.7-0.4c0.1-0.2,0.2-0.5,0.1-0.9l-0.7-3.8c-0.1-0.6-0.3-1-0.5-1.1c-0.2-0.2-0.5-0.2-0.9-0.2
		c-0.4,0.1-0.7,0.2-0.8,0.5c-0.1,0.3-0.1,0.8,0.1,1.5l0.5,2.5l-8.1,1.5l-1.3-6.7l4-0.8l0.1,0.5c0.1,0.7,0.3,1.2,0.5,1.4
		c0.2,0.2,0.5,0.3,0.8,0.2c0.4-0.1,0.6-0.2,0.7-0.5c0.1-0.2,0.1-0.7-0.1-1.5l-0.5-2.8c-0.1-0.7-0.3-1.2-0.5-1.4
		c-0.2-0.2-0.4-0.3-0.8-0.2c-0.4,0.1-0.6,0.2-0.7,0.5c-0.1,0.2-0.1,0.6,0,1.2l0.2,0.8l-4,0.8l-1-5.1l8.1-1.5l0.4,2.2
		c0.1,0.8,0.3,1.3,0.5,1.5c0.2,0.2,0.5,0.2,0.9,0.2c0.4-0.1,0.6-0.2,0.8-0.5c0.1-0.2,0.1-0.6,0-1.1l-0.7-3.6
		c-0.1-0.4-0.2-0.7-0.4-0.9c-0.2-0.2-0.5-0.2-0.8-0.2l-12.5,2.4l-0.7,0.1C239.1,383.7,238.8,383.8,238.7,384 M204.4,384.9
		c-0.3,0.2-0.4,0.4-0.4,0.8c0,0.4,0.2,0.7,0.5,0.9c0.3,0.2,0.9,0.2,1.8,0.2l0.4,0l0.2,13.9l-0.3,0c-0.6,0-1,0.1-1.2,0.2
		s-0.3,0.4-0.3,0.8c0,0.4,0.1,0.6,0.3,0.8c0.2,0.2,0.5,0.3,0.8,0.3l0.7,0l3.9,0c0.8,0,1.2-0.1,1.5-0.3c0.2-0.2,0.3-0.5,0.3-0.9
		c0-0.4-0.1-0.7-0.4-0.8c-0.2-0.2-0.6-0.2-1.2-0.2l-1.1,0l-0.8,0l-0.2-12.6l8.4,14c0.3,0.5,0.5,0.7,0.6,0.8c0.1,0.1,0.4,0.1,0.9,0.1
		c0.5,0,0.8-0.1,1-0.2c0.1-0.1,0.2-0.3,0.2-0.6l-0.2-15.5l0.2,0c0.6,0,1-0.1,1.2-0.3c0.2-0.2,0.3-0.5,0.3-0.9c0-0.4-0.1-0.6-0.3-0.8
		c-0.2-0.2-0.5-0.3-0.8-0.3l-0.7,0l-3.7,0c-0.7,0-1.1,0.1-1.4,0.3c-0.2,0.2-0.3,0.5-0.3,0.9c0,0.4,0.1,0.7,0.4,0.8
		c0.3,0.2,0.7,0.3,1.2,0.3l1.1,0l0.6,0l0.2,12.2l-7.9-13.3c-0.3-0.4-0.5-0.7-0.7-0.8c-0.2-0.1-0.5-0.2-1-0.1l-1.4,0
		c-0.2,0-0.5,0-0.9,0C205,384.6,204.6,384.7,204.4,384.9 M169.4,395.6c-0.1,0.4,0,0.7,0.1,0.9s0.4,0.4,0.8,0.4l0.7,0.1l9.2,1.8
		c0.8,0.1,1.3,0.2,1.5,0.1c0.2-0.1,0.4-0.4,0.5-0.8c0.1-0.4,0-0.7-0.2-0.9c-0.2-0.2-0.7-0.4-1.4-0.5l-3.4-0.7l2.6-13.7l3.4,0.7
		c0.8,0.1,1.3,0.2,1.5,0c0.3-0.1,0.4-0.4,0.5-0.8c0.1-0.4,0-0.7-0.1-0.9c-0.2-0.2-0.4-0.4-0.8-0.4l-0.7-0.1l-9.2-1.8l-0.7-0.1
		c-0.4-0.1-0.7,0-0.9,0.1c-0.2,0.1-0.4,0.4-0.4,0.8c-0.1,0.4,0,0.7,0.2,0.9c0.2,0.2,0.7,0.4,1.4,0.5l3.4,0.7l-2.6,13.7l-3.4-0.7
		c-0.8-0.1-1.3-0.2-1.5-0.1C169.6,395,169.4,395.2,169.4,395.6 M135.3,382.7c-0.1,0.3-0.2,0.6-0.1,0.9c0.1,0.2,0.3,0.4,0.6,0.6
		l8,3.3c0.3,0.1,0.6,0.1,0.9,0c0.2-0.1,0.4-0.3,0.6-0.7c0.1-0.3,0.2-0.6,0-0.9c-0.1-0.2-0.4-0.4-0.8-0.6l-0.6-0.2l-2.2-0.9l5.3-12.9
		l4.1,1.7l-1.4,3.8c-0.3,0.7-0.4,1.2-0.3,1.5c0.1,0.3,0.3,0.5,0.7,0.6c0.4,0.1,0.7,0.2,0.9,0.1c0.2-0.1,0.4-0.3,0.6-0.7
		c0,0,0-0.1,0.1-0.2c0.1-0.2,0.1-0.3,0.2-0.5l1.8-4.8c0.1-0.4,0.1-0.6,0-0.9c-0.1-0.2-0.3-0.4-0.7-0.6l-12.4-5.1
		c-0.4-0.1-0.7-0.2-0.9-0.1c-0.2,0.1-0.4,0.3-0.6,0.6l-2.1,4.7c-0.1,0.2-0.2,0.4-0.3,0.7c-0.1,0.3-0.2,0.6-0.1,0.9
		c0.1,0.2,0.3,0.4,0.6,0.6c0.4,0.2,0.8,0.2,1,0.1c0.2-0.1,0.5-0.6,0.8-1.3l1.7-3.7l4.1,1.7l-5.3,12.9l-2.2-0.9l-0.5-0.2
		c-0.4-0.2-0.8-0.2-1-0.2C135.6,382.1,135.4,382.4,135.3,382.7 M100.6,360.7c-0.2,0.3-0.3,0.6-0.2,0.8c0,0.3,0.2,0.5,0.5,0.7
		l0.6,0.4l3.2,2.2c0.6,0.4,1.1,0.6,1.3,0.6c0.3,0,0.5-0.2,0.8-0.5c0.2-0.3,0.3-0.6,0.2-0.9c-0.1-0.3-0.4-0.6-0.8-0.9l-0.9-0.6
		l-0.6-0.4l7.2-10.4l-1.3,16.3c0,0.5,0,0.9,0,1c0.1,0.1,0.3,0.3,0.7,0.6c0.4,0.3,0.7,0.4,0.9,0.4c0.2,0,0.4-0.1,0.5-0.4l8.9-12.8
		l0.2,0.1c0.5,0.3,0.9,0.5,1.1,0.5c0.3,0,0.5-0.2,0.8-0.5c0.2-0.3,0.3-0.6,0.3-0.8c0-0.3-0.2-0.5-0.5-0.7l-0.6-0.4l-3-2.1
		c-0.6-0.4-1-0.6-1.3-0.6c-0.3,0-0.5,0.2-0.8,0.5c-0.2,0.3-0.3,0.6-0.2,0.9c0.1,0.3,0.4,0.6,0.8,0.9l0.9,0.6l0.5,0.3l-6.9,10
		l1.3-15.5c0-0.5,0-0.9-0.1-1.1c-0.1-0.2-0.3-0.4-0.7-0.7l-1.2-0.8c-0.2-0.1-0.4-0.3-0.8-0.5c-0.5-0.3-0.9-0.5-1.2-0.5
		c-0.3,0-0.6,0.1-0.8,0.5c-0.2,0.3-0.3,0.7-0.1,1c0.2,0.3,0.6,0.7,1.3,1.2l0.3,0.2l-7.9,11.4l-0.2-0.2c-0.5-0.3-0.9-0.5-1.1-0.5
		C101.1,360.2,100.8,360.3,100.6,360.7 M73.6,334.5c-0.3,0.3-0.4,0.5-0.4,0.8c0,0.3,0.1,0.5,0.4,0.8l0.5,0.5l8.9,9.1
		c0.2,0.2,0.5,0.4,0.8,0.4s0.5-0.1,0.8-0.4l2.8-2.7c0.4-0.4,0.6-0.7,0.7-1c0-0.3-0.1-0.5-0.4-0.8c-0.3-0.3-0.6-0.4-0.9-0.4
		s-0.7,0.3-1.3,0.9l-1.8,1.7l-5.7-5.9l4.9-4.8l2.8,2.9l-0.4,0.4c-0.5,0.5-0.8,0.9-0.9,1.2c-0.1,0.3,0,0.5,0.3,0.8
		c0.3,0.3,0.5,0.4,0.8,0.3c0.3,0,0.7-0.3,1.2-0.9l2.1-2c0.5-0.5,0.9-0.9,0.9-1.2c0.1-0.3,0-0.5-0.3-0.8c-0.3-0.3-0.5-0.4-0.8-0.3
		c-0.3,0-0.6,0.3-1,0.6l-0.6,0.6l-2.8-2.9l3.7-3.6l5.7,5.9l-1.6,1.5c-0.6,0.6-0.9,1-0.9,1.2c-0.1,0.3,0.1,0.6,0.4,0.9
		c0.3,0.3,0.5,0.4,0.8,0.4c0.3,0,0.6-0.2,1-0.6l2.6-2.5c0.3-0.3,0.4-0.6,0.5-0.8c0-0.3-0.1-0.5-0.3-0.8l-8.9-9.1l-0.5-0.5
		c-0.3-0.3-0.5-0.4-0.8-0.4c-0.3,0-0.5,0.1-0.8,0.4c-0.3,0.3-0.4,0.6-0.4,0.9s0.3,0.7,0.9,1.2l0.7,0.7l-9.9,9.7l-0.7-0.7
		c-0.6-0.6-1-0.9-1.2-0.9C74.2,334.1,73.9,334.2,73.6,334.5 M51.4,303.7c-0.1,0.3,0,0.5,0.2,0.8l2.4,3.6c0.3,0.5,0.6,0.8,0.9,0.9
		c0.3,0.1,0.6,0,0.9-0.2c0.3-0.2,0.5-0.5,0.5-0.8c0-0.3-0.2-0.7-0.5-1.2l-0.6-0.9l11.2-7.1l-5.7,7.5c-0.3,0.4-0.4,0.7-0.4,1
		c0,0.3,0.1,0.6,0.3,1c0.2,0.4,0.5,0.6,0.8,0.7c0.3,0.1,0.6,0.1,1.1,0l9.1-2.3l-10.9,7.6l-0.4-0.6c-0.4-0.6-0.7-1-1-1.1
		c-0.3-0.1-0.6-0.1-0.9,0.1c-0.3,0.2-0.5,0.5-0.5,0.7c0,0.3,0.1,0.7,0.5,1.2l2.4,3.6c0.2,0.3,0.4,0.5,0.7,0.5c0.3,0.1,0.5,0,0.8-0.2
		c0.3-0.2,0.5-0.5,0.5-0.7s-0.2-0.7-0.6-1.2l-0.2-0.3l11.5-8.1l0.1,0.2c0.3,0.5,0.6,0.8,0.8,0.9c0.2,0.1,0.5,0,0.8-0.2
		c0.3-0.2,0.5-0.4,0.5-0.6s0-0.5-0.2-0.8l-1.4-2.1c-0.3-0.4-0.5-0.7-0.8-0.8c-0.3-0.1-0.6-0.1-1-0.1l-9.9,2.5l6.2-8.1
		c0.2-0.3,0.4-0.6,0.4-0.9s-0.1-0.6-0.4-1l-1.4-2.1c-0.2-0.3-0.4-0.4-0.6-0.5c-0.2,0-0.5,0-0.8,0.2c-0.3,0.2-0.5,0.5-0.5,0.7
		c0,0.3,0.1,0.6,0.5,1.1l0.1,0.2l-12,7.3l-0.2-0.3c-0.4-0.6-0.7-0.9-0.9-1c-0.2-0.1-0.5,0-0.9,0.2C51.7,303.2,51.5,303.4,51.4,303.7
		 M47.3,205.9c0.2-0.7,0.3-1.4,0.3-2.1c0-2.5-0.9-4.7-2.7-6.4c-1.8-1.7-4.1-2.6-6.9-2.6c-2.8,0-5.1,0.8-6.9,2.4
		c-1.8,1.6-2.7,3.7-2.8,6.3c0,1,0.1,1.9,0.4,2.8c0.3,0.9,0.7,1.8,1.2,2.6c0.4,0.7,0.7,1.1,1,1.4c0.3,0.2,0.6,0.4,0.9,0.4
		c0.3,0,0.6-0.1,0.8-0.3c0.2-0.2,0.3-0.5,0.3-0.8c0-0.2-0.2-0.6-0.5-1c-0.3-0.5-0.6-0.9-0.7-1.2c-0.3-0.6-0.6-1.2-0.7-1.8
		c-0.2-0.6-0.2-1.2-0.2-1.8c0-1.8,0.7-3.3,2.1-4.4s3.1-1.6,5.4-1.6s4,0.6,5.3,1.7c1.3,1.1,2,2.6,1.9,4.4c0,1-0.3,1.9-0.8,2.6
		c-0.5,0.7-1.1,1.2-1.9,1.4c-0.2,0-0.4,0.1-0.7,0.2c-1,0.2-1.5,0.6-1.5,1.3c0,0.4,0.1,0.7,0.2,0.9c0.2,0.2,0.5,0.3,1,0.3
		c-0.1,0,0.3,0,1.1,0c0.9,0,1.8,0,2.8,0c0.6,0,1-0.1,1.1-0.2c0.2-0.2,0.3-0.4,0.3-0.8c0-0.3,0-0.6-0.2-0.8c-0.1-0.2-0.3-0.3-0.6-0.4
		C46.9,207.3,47.1,206.6,47.3,205.9 M48.7,238.7c0.2-0.2,0.2-0.5,0.1-0.9l-0.1-0.7l-1.1-6.9l-0.1-0.7c-0.1-0.4-0.2-0.7-0.4-0.8
		c-0.2-0.2-0.5-0.2-0.9-0.1c-0.4,0.1-0.7,0.2-0.8,0.5c-0.1,0.3-0.1,0.8,0,1.5l0.3,1.9L32,234.8l-0.3-1.9c-0.1-0.8-0.3-1.3-0.5-1.4
		c-0.2-0.2-0.5-0.3-0.9-0.2c-0.4,0.1-0.6,0.2-0.8,0.4c-0.2,0.2-0.2,0.5-0.1,0.9l0.1,0.7l2.2,13.5c0.1,0.3,0.2,0.6,0.4,0.8
		c0.2,0.2,0.5,0.2,0.9,0.2l5-0.8l0.7-0.1c0.4-0.1,0.7-0.2,0.8-0.4c0.2-0.2,0.2-0.5,0.1-0.9c-0.1-0.4-0.2-0.7-0.5-0.8
		c-0.2-0.1-0.8-0.1-1.5,0l-4,0.7l-1.3-8.1l13.7-2.3l0.4,2.6c0.1,0.8,0.3,1.3,0.5,1.5c0.2,0.2,0.5,0.3,0.9,0.2
		C48.3,239.1,48.5,239,48.7,238.7 M59.1,277.1c0.1-0.2,0.1-0.5,0-0.9l-4.8-11.8l-0.3-0.6c-0.1-0.4-0.3-0.6-0.6-0.7
		c-0.2-0.1-0.5-0.1-0.9,0.1c-0.4,0.2-0.6,0.4-0.7,0.7c-0.1,0.3,0.1,0.8,0.3,1.5l0.4,0.9l-12.9,5.3l-0.4-0.9
		c-0.3-0.7-0.6-1.2-0.8-1.3c-0.2-0.1-0.5-0.1-0.9,0c-0.3,0.1-0.6,0.3-0.7,0.6s-0.1,0.5,0.1,0.9l0.3,0.7l4.8,11.8
		c0.1,0.3,0.3,0.5,0.6,0.6c0.3,0.1,0.5,0.1,0.9-0.1l3.6-1.5c0.5-0.2,0.9-0.4,1-0.7c0.1-0.2,0.1-0.5,0-0.9c-0.2-0.4-0.4-0.6-0.6-0.7
		c-0.3-0.1-0.8,0.1-1.5,0.4l-2.3,0.9l-3.1-7.6l6.3-2.6l1.5,3.7L48,275c-0.7,0.3-1.1,0.5-1.2,0.7c-0.2,0.2-0.2,0.5-0.1,0.8
		c0.1,0.3,0.3,0.5,0.6,0.6c0.3,0.1,0.7-0.1,1.5-0.4l2.7-1.1c0.7-0.3,1.1-0.5,1.3-0.8s0.2-0.5,0-0.8c-0.1-0.3-0.3-0.5-0.6-0.6
		c-0.3-0.1-0.6,0-1.2,0.2l-0.8,0.3l-1.5-3.7l4.8-2l3.1,7.6l-2,0.8c-0.7,0.3-1.2,0.6-1.3,0.8c-0.1,0.2-0.1,0.5,0,0.9
		c0.2,0.4,0.4,0.6,0.6,0.7c0.2,0.1,0.6,0,1.1-0.2l3.4-1.4C58.8,277.5,59,277.3,59.1,277.1 M375.7,212.5
		c0-85.9-69.7-155.6-155.6-155.6c-85.9,0-155.6,69.7-155.6,155.6s69.7,155.6,155.6,155.6C306,368.1,375.7,298.5,375.7,212.5
		 M381.1,275.2c0.2-0.5,0.3-0.9,0.2-1.1c-0.1-0.3-0.3-0.5-0.7-0.6c-0.3-0.1-0.6-0.2-0.9-0.1c-0.2,0.1-0.4,0.3-0.6,0.6l-1.8,4.5
		c-0.2,0.6-0.3,1-0.2,1.2c0.1,0.3,0.3,0.5,0.7,0.6c0.4,0.1,0.7,0.1,0.9,0c0.3-0.1,0.5-0.4,0.7-0.9l0.8-1.9l10.5,9.8l-14.4-0.2
		l0.6-1.6c0.2-0.5,0.2-0.8,0.2-1.1c-0.1-0.3-0.3-0.5-0.6-0.6c-0.4-0.2-0.7-0.2-0.9,0c-0.2,0.1-0.5,0.5-0.7,1l-1.8,4.3
		c-0.1,0.3-0.1,0.6,0,0.8c0.1,0.2,0.3,0.4,0.7,0.6c0.4,0.2,0.7,0.2,0.9,0c0.2-0.1,0.5-0.4,0.6-0.9l0.1-0.2l15.6,0.2l0.1,0
		c1.2,0,1.9-0.3,2.1-0.9l0.3-0.8c0.1-0.3,0.1-0.5,0-0.8c-0.1-0.2-0.5-0.7-1-1.2L381,275.4L381.1,275.2z M392.8,242.5l-3.6-0.6
		c-0.4-0.1-0.7,0-1,0.1c-0.2,0.1-0.4,0.4-0.4,0.7l-2.1,12.6l-0.1,0.7c-0.1,0.4,0,0.7,0.1,0.9c0.1,0.2,0.4,0.4,0.8,0.4
		c0.4,0.1,0.7,0,0.9-0.2c0.2-0.2,0.4-0.7,0.5-1.4l0.2-1l13.7,2.3l-0.2,1c-0.1,0.8-0.1,1.3,0,1.5c0.1,0.2,0.4,0.4,0.8,0.5
		c0.4,0.1,0.7,0,0.9-0.1c0.2-0.2,0.4-0.4,0.4-0.8l0.1-0.7l2.1-12.6c0.1-0.3,0-0.6-0.2-0.8c-0.2-0.2-0.4-0.4-0.8-0.4l-3.8-0.6
		c-0.6-0.1-1-0.1-1.2,0c-0.2,0.1-0.4,0.4-0.4,0.8c-0.1,0.4,0,0.7,0.2,0.9c0.2,0.2,0.7,0.4,1.5,0.5l2.5,0.4l-1.3,8.1l-6.7-1.1l0.7-4
		l0.5,0.1c0.7,0.1,1.2,0.1,1.5,0s0.4-0.3,0.5-0.7c0.1-0.4,0-0.6-0.2-0.8c-0.2-0.2-0.7-0.3-1.4-0.5l-2.8-0.5c-0.8-0.1-1.3-0.1-1.5,0
		c-0.3,0.1-0.4,0.3-0.5,0.7c-0.1,0.4,0,0.6,0.2,0.8c0.2,0.2,0.6,0.3,1.1,0.4l0.8,0.1l-0.7,4l-5.1-0.8l1.3-8.1l2.2,0.4
		c0.8,0.1,1.3,0.1,1.5,0c0.2-0.1,0.4-0.4,0.5-0.8c0.1-0.4,0-0.7-0.2-0.9S393.3,242.6,392.8,242.5 M398.7,216l0,3.2l-6.2-0.1l0-3.3
		c0-1.4,0.3-2.5,0.8-3.2c0.5-0.7,1.3-1,2.4-1c1,0,1.8,0.4,2.3,1.1C398.5,213.4,398.7,214.5,398.7,216 M408.8,207.8
		c0-0.3-0.1-0.6-0.3-0.8c-0.2-0.2-0.5-0.3-0.8-0.3c-0.4,0-0.7,0.1-0.8,0.3c-0.2,0.2-0.2,0.6-0.3,1.2l0,0.5l-4.8,3
		c-0.3,0.2-0.5,0.4-0.7,0.6c-0.2,0.2-0.4,0.4-0.5,0.7c-0.3-1.3-0.9-2.3-1.7-3.1c-0.8-0.7-1.9-1.1-3-1.1c-0.9,0-1.7,0.2-2.5,0.6
		c-0.8,0.4-1.4,0.9-1.9,1.6c-0.4,0.5-0.6,1.2-0.8,2c-0.2,0.8-0.2,1.9-0.3,3.5l-0.1,6.5c0,0.4,0.1,0.6,0.3,0.8
		c0.2,0.2,0.4,0.3,0.8,0.3c0.4,0,0.7-0.1,0.8-0.3c0.1-0.2,0.2-0.7,0.2-1.5l0-0.9l14,0.2l0,0.9l0,0.5c0,0.5,0.1,0.8,0.2,1
		c0.2,0.2,0.4,0.3,0.8,0.3c0.4,0,0.6-0.1,0.8-0.3c0.2-0.2,0.3-0.4,0.3-0.8l0.1-5.2c0-0.6-0.1-1-0.2-1.2c-0.2-0.2-0.4-0.3-0.9-0.3
		c-0.4,0-0.7,0.1-0.8,0.4c-0.2,0.2-0.3,0.7-0.3,1.3l0,1l-5.8-0.1l0-2.1c0-0.6,0.1-1.2,0.4-1.6c0.3-0.4,0.9-0.9,1.8-1.5l4.5-2.9
		c0,0,0.1-0.1,0.2-0.1c0.7-0.5,1.1-1,1.1-1.5L408.8,207.8z"/>
	<path clip-path="url(#SVGID_2_)" fill="#58595B" d="M326.3,85.9c-27.6-3-43.4-54.9-103.5-29.4V32.3c0-1.9-1.6-3.5-3.5-3.5
		s-3.5,1.6-3.5,3.5v7.8C155.1,14,139.3,66.3,111.6,69.3c75.2,32.2,81.4-21.1,104.1-28.2v36.6c-2.6,1.3-4.5,4-4.5,7.1
		c0,4.4,3.6,8,8,8s8-3.6,8-8c0-3.1-1.8-5.8-4.5-7.1V57.9C245,65.7,251.7,117.8,326.3,85.9"/>
</g>
</svg>
